<svg data-v-6805eed4="" version="1.0" xmlns="http://www.w3.org/2000/svg" xmlns:xlink="http://www.w3.org/1999/xlink" width="100%" height="100%" viewBox="0 0 340.000000 250.000000" preserveAspectRatio="xMidYMid meet" color-interpolation-filters="sRGB" style="margin: auto;"> 
<g data-v-6805eed4="" fill="#dedede" class="icon-text-wrapper icon-svg-group iconsvg" transform="translate(81.58000183105469,84.26509094238281)"><g class="iconsvg-imagesvg" transform="translate(58.41999816894531,0)">
<g>
<rect fill="#333" fill-opacity="0" stroke-width="2" x="0" y="0" width="60" height="52.17981163088002" class="image-rect"></rect> 
<svg x="0" y="0" width="60" height="52.17981163088002" filtersec="colorsb7468273951" class="image-svg-svg primary" style="overflow: visible;"><svg xmlns="http://www.w3.org/2000/svg" viewBox="0 0 326 283.510009765625">
<title>页面-1</title>
<g fill-rule="evenodd"><path fill="#FF0000" d="M0 0l163.23 283.51 41-70.73L81.23 0H0z"></path><path fill="#FF0000" opacity=".8" d="M0 0h326l-40 71H41L0 0z"></path><path fill="#FF0000" opacity=".8" d="M55 95h218.46l-40 71H96L55 95z"></path></g></svg></svg> <!----></g></g> <g transform="translate(0,59.179813385009766)"><g data-gra="path-name" fill-rule="" class="tp-name iconsvg-namesvg"><g transform="scale(1)"><g><path d="M9.31-4.43L9.31-8.55 14.64-8.55C15.81-8.55 16.66-8.7 17.19-9.01 17.72-9.32 17.98-9.83 17.98-10.55 17.98-11 17.94-11.37 17.84-11.65 17.74-11.94 17.57-12.19 17.33-12.39 17.09-12.59 16.77-12.73 16.37-12.82 15.98-12.9 15.5-12.95 14.92-12.95L9.31-12.95 9.31-16.68 16.36-16.68C17.55-16.68 18.4-16.86 18.92-17.23 19.45-17.61 19.71-18.26 19.71-19.2 19.71-20.19 19.4-20.89 18.8-21.27 18.19-21.65 17.27-21.84 16.04-21.84L5.58-21.84C5.05-21.84 4.57-21.77 4.15-21.64 3.72-21.5 3.34-21.28 3-20.98 2.66-20.68 2.4-20.29 2.22-19.79 2.04-19.29 1.95-18.7 1.95-18.02L1.95-4.56C1.95-2.9 2.26-1.73 2.9-1.04 3.54-0.35 4.43 0 5.58 0 6.79 0 7.72-0.38 8.35-1.13 8.99-1.89 9.31-2.99 9.31-4.43ZM29.02-4.81L29.02-18.3C29.02-19.73 28.72-20.67 28.14-21.14 27.56-21.61 26.68-21.84 25.51-21.84 25.11-21.84 24.73-21.8 24.38-21.71 24.03-21.63 23.7-21.49 23.4-21.3 23.11-21.11 22.86-20.86 22.66-20.57 22.45-20.27 22.29-19.91 22.18-19.48 22.06-19.06 22-18.57 22-18.02L22.07-4.56C22.07-2.86 22.34-1.67 22.89-1 23.45-0.33 24.32 0 25.51 0 26.7 0 27.58-0.37 28.16-1.12 28.73-1.86 29.02-3.09 29.02-4.81ZM42.03-10.55L42.03-4.59C41.67-4.02 41.19-3.73 40.59-3.73 40.02-3.73 39.57-4.11 39.25-4.88 38.93-5.64 38.77-6.52 38.77-7.49 38.77-8.53 38.94-9.46 39.28-10.27 39.62-11.08 40.07-11.48 40.62-11.48 41.2-11.48 41.67-11.17 42.03-10.55ZM37.69 0.19C39.54 0.19 41.14-0.27 42.5-1.18 42.95-0.39 43.88 0 45.28 0 46.62 0 47.55-0.25 48.09-0.75 48.62-1.25 48.88-2.14 48.88-3.41L48.88-11.7C48.88-13.04 48.56-13.96 47.93-14.46 47.29-14.96 46.4-15.21 45.25-15.21 43.97-15.21 43.05-14.68 42.47-13.62 41.01-14.83 39.41-15.43 37.69-15.43 35.99-15.43 34.59-14.72 33.5-13.28 32.4-11.85 31.85-9.92 31.85-7.49 31.85-5.11 32.41-3.24 33.51-1.87 34.62-0.49 36.01 0.19 37.69 0.19ZM59.34-15.43C57.09-15.43 55.25-14.96 53.84-14.01 52.43-13.07 51.72-11.85 51.72-10.36 51.72-9.49 51.91-8.75 52.28-8.15 52.65-7.54 53.3-7.04 54.24-6.63 54.83-6.25 55.63-5.93 56.63-5.68 57.63-5.42 58.44-5.2 59.05-5.02 59.67-4.84 59.98-4.6 59.98-4.3 59.98-3.73 59.39-3.44 58.22-3.44 57.37-3.44 56.45-3.68 55.45-4.16 54.45-4.64 53.71-4.88 53.22-4.88 52.73-4.88 52.35-4.76 52.09-4.53 51.82-4.29 51.69-3.98 51.69-3.57 51.69-2.91 52.02-2.27 52.68-1.66 54.04-0.4 56.09 0.22 58.83 0.22 60.23 0.22 61.48 0.07 62.58-0.24 63.67-0.55 64.54-0.95 65.18-1.45 65.81-1.95 66.29-2.48 66.61-3.05 66.93-3.61 67.09-4.18 67.09-4.75 67.09-5.92 66.79-6.86 66.2-7.57 65.6-8.29 64.51-8.95 62.91-9.57 62.49-9.78 61.87-10 61.05-10.24 60.23-10.47 59.61-10.69 59.18-10.91 58.76-11.12 58.54-11.4 58.54-11.77 58.54-12.28 58.96-12.53 59.79-12.53 60.4-12.53 60.99-12.43 61.54-12.21 62.09-12 62.54-11.77 62.88-11.51 63.22-11.26 63.58-11.02 63.96-10.79 64.35-10.57 64.7-10.46 65.02-10.46 65.38-10.46 65.68-10.58 65.91-10.81 66.14-11.04 66.26-11.3 66.26-11.57 66.26-12.53 65.6-13.41 64.28-14.22 62.97-15.03 61.32-15.43 59.34-15.43ZM79.88-8.55L79.91-2.65C79.91-1.75 80.17-1.09 80.69-0.65 81.21-0.22 82.07 0 83.26 0 83.87 0 84.38-0.06 84.77-0.19 85.16-0.32 85.51-0.53 85.81-0.83 86.1-1.13 86.32-1.58 86.46-2.18 86.6-2.79 86.7-3.51 86.76-4.35 86.83-5.19 86.86-6.27 86.86-7.59 86.86-9.42 86.71-10.89 86.41-12.02 86.12-13.15 85.66-13.97 85.04-14.49 84.43-15.01 83.61-15.27 82.59-15.27 80.33-15.27 78.42-14.8 76.85-13.84L76.85-18.46C76.85-19.21 76.76-19.82 76.59-20.31 76.42-20.8 76.17-21.17 75.83-21.41 75.49-21.66 75.13-21.82 74.76-21.89 74.39-21.96 73.91-22 73.34-22 72.28-22 71.43-21.69 70.79-21.08 70.15-20.46 69.83-19.49 69.83-18.18L69.9-4.59C69.9-2.89 70.17-1.71 70.72-1.04 71.28-0.37 72.15-0.03 73.34-0.03 74.53-0.03 75.41-0.4 75.99-1.13 76.56-1.87 76.85-3.1 76.85-4.85L76.85-8.35C76.85-8.59 76.86-8.8 76.89-8.99 76.93-9.18 76.98-9.35 77.05-9.49 77.13-9.62 77.21-9.75 77.31-9.87 77.4-9.99 77.51-10.08 77.63-10.14 77.74-10.2 77.87-10.26 78.01-10.3 78.15-10.34 78.3-10.36 78.47-10.36 79.41-10.36 79.88-9.76 79.88-8.55ZM109.37-5.01C108.88-5.01 108.52-5.19 108.29-5.55 108.05-5.91 107.89-6.47 107.81-7.24 108.09-8.51 108.22-10.49 108.22-13.17 108.22-13.93 108.22-14.52 108.21-14.94 108.2-15.35 108.19-15.84 108.18-16.41 108.16-16.97 108.14-17.39 108.11-17.68 108.08-17.97 108.03-18.3 107.95-18.69 107.88-19.07 107.8-19.34 107.71-19.51 107.63-19.68 107.51-19.89 107.36-20.12 107.21-20.35 107.05-20.51 106.88-20.6 106.71-20.68 106.5-20.78 106.25-20.89 105.99-20.99 105.72-21.06 105.43-21.08 105.15-21.1 104.81-21.11 104.43-21.11 103.77-21.11 103.25-21.05 102.88-20.93 102.51-20.82 102.18-20.62 101.88-20.34 101.58-20.07 101.37-19.61 101.24-18.97 101.11-18.33 101.02-17.58 100.95-16.71 100.89-15.84 100.86-14.67 100.86-13.2 100.86-10.59 101-8.66 101.27-7.43 101.19-6.56 101.03-5.93 100.79-5.53 100.56-5.14 100.21-4.94 99.74-4.94 98.81-4.94 98.18-5.4 97.86-6.31 97.54-7.23 97.38-8.71 97.38-10.75L97.35-18.53C97.35-19.27 97.24-19.88 97.03-20.34 96.82-20.81 96.46-21.17 95.95-21.41 95.44-21.66 94.75-21.78 93.87-21.78 92.83-21.78 92.04-21.52 91.5-21.01 90.96-20.5 90.55-19.54 90.29-18.11 90.02-16.69 89.89-14.58 89.89-11.8 89.89-10.08 90.1-8.51 90.51-7.09 90.92-5.68 91.46-4.53 92.12-3.65 92.78-2.77 93.54-2.03 94.4-1.43 95.26-0.84 96.11-0.42 96.94-0.18 97.76 0.07 98.59 0.19 99.42 0.19 101.36 0.19 103.09-0.44 104.62-1.69 106.17-0.48 107.9 0.13 109.82 0.13 110.37 0.13 110.94 0.07 111.52-0.05 112.11-0.16 112.71-0.37 113.33-0.65 113.94-0.94 114.53-1.3 115.08-1.72 115.63-2.15 116.16-2.68 116.66-3.33 117.16-3.98 117.59-4.71 117.95-5.52 118.31-6.32 118.6-7.27 118.81-8.35 119.02-9.44 119.13-10.61 119.13-11.86 119.13-13.97 119.06-15.66 118.94-16.93 118.81-18.21 118.58-19.22 118.24-19.96 117.9-20.71 117.49-21.2 117.01-21.46 116.53-21.71 115.9-21.84 115.11-21.84 113.84-21.84 112.94-21.58 112.42-21.06 111.9-20.54 111.64-19.72 111.64-18.59L111.57-10.78C111.57-8.74 111.41-7.26 111.09-6.36 110.77-5.46 110.2-5.01 109.37-5.01ZM129.05-3.41L129.05-9.82C129.28-10.14 129.63-10.3 130.1-10.3 130.42-10.3 130.7-10.2 130.94-10.01 131.19-9.82 131.45-9.63 131.74-9.44 132.03-9.25 132.4-9.15 132.87-9.15 133.66-9.15 134.3-9.42 134.78-9.95 135.27-10.48 135.52-11.17 135.52-12.02 135.52-14.15 134.4-15.21 132.17-15.21 131.02-15.21 129.83-14.74 128.6-13.81 128.09-14.74 127.03-15.21 125.41-15.21 124.75-15.21 124.18-15.06 123.69-14.76 123.2-14.47 122.83-14.05 122.57-13.5 122.32-12.96 122.19-12.33 122.19-11.61L122.19-3.76C122.19-2.42 122.41-1.46 122.86-0.88 123.31-0.29 124.16 0 125.41 0 126.77 0 127.72-0.25 128.25-0.75 128.78-1.25 129.05-2.14 129.05-3.41ZM144.1-3.41L144.1-11.7C144.1-13.04 143.78-13.96 143.14-14.46 142.5-14.96 141.61-15.21 140.46-15.21 139.48-15.21 138.7-14.88 138.12-14.22 137.53-13.56 137.24-12.69 137.24-11.61L137.24-3.76C137.24-2.42 137.47-1.46 137.93-0.88 138.38-0.29 139.24 0 140.49 0 141.83 0 142.77-0.25 143.3-0.75 143.83-1.25 144.1-2.14 144.1-3.41ZM137.18-19.64C137.18-20.36 137.48-20.95 138.09-21.4 138.69-21.84 139.55-22.07 140.65-22.07 142.97-22.07 144.13-21.26 144.13-19.64 144.13-18.75 143.83-18.12 143.23-17.76 142.64-17.4 141.78-17.22 140.65-17.22 139.65-17.22 138.82-17.41 138.16-17.79 137.51-18.18 137.18-18.79 137.18-19.64ZM148.59-6.82C148.59-4.4 149.03-2.66 149.9-1.59 150.77-0.53 152.26 0 154.36 0 155.3 0 156.14-0.2 156.9-0.61 157.65-1.01 158.24-1.52 158.67-2.14 159.09-2.75 159.42-3.39 159.64-4.05 159.86-4.71 159.98-5.33 159.98-5.9 159.98-6.24 159.84-6.53 159.58-6.76 159.31-6.99 158.93-7.11 158.44-7.11 158.23-7.11 158.05-7.02 157.89-6.84 157.73-6.66 157.6-6.46 157.5-6.23 157.41-6.01 157.28-5.81 157.11-5.63 156.94-5.45 156.72-5.36 156.47-5.36 156.3-5.36 156.15-5.38 156.04-5.42 155.92-5.46 155.83-5.55 155.77-5.68 155.7-5.8 155.65-5.98 155.62-6.2 155.59-6.43 155.57-6.71 155.57-7.05L155.57-10.55 156.15-10.55C156.74-10.55 157.24-10.58 157.65-10.63 158.05-10.69 158.4-10.78 158.68-10.91 158.97-11.03 159.18-11.21 159.31-11.45 159.43-11.68 159.5-11.97 159.5-12.31 159.5-13.12 159.28-13.67 158.84-13.98 158.41-14.29 157.6-14.44 156.44-14.44L155.57-14.44 155.54-18.11C155.54-18.92 155.44-19.53 155.22-19.93 155.01-20.33 154.55-20.53 153.85-20.53 152.71-20.53 151.55-20.21 150.38-19.56 149.21-18.91 148.62-18.19 148.62-17.38L148.62-14.41C147.16-14.31 146.42-13.65 146.42-12.44 146.42-12.05 146.49-11.73 146.63-11.48 146.77-11.22 147-11.02 147.32-10.86 147.64-10.7 148.06-10.61 148.59-10.59ZM169.06-8.93C169.13-9.63 169.26-10.27 169.48-10.86 169.69-11.44 169.94-11.89 170.23-12.21 170.51-12.53 170.81-12.69 171.1-12.69 171.91-12.69 172.32-12.02 172.32-10.68 172.32-10.19 172.26-9.81 172.16-9.53 172.01-9.15 171.77-8.96 171.45-8.96 171.33-8.96 170.53-8.95 169.06-8.93ZM171.23 0.19C172.38 0.19 173.45 0 174.45-0.38 175.45-0.77 176.25-1.23 176.86-1.77 177.47-2.31 177.94-2.85 178.28-3.4 178.62-3.94 178.79-4.4 178.79-4.78 178.79-5.1 178.69-5.37 178.49-5.58 178.28-5.79 178-5.9 177.64-5.9 177.43-5.9 177.08-5.78 176.6-5.55 176.13-5.31 175.68-5.14 175.28-5.04 174.32-4.8 173.39-4.69 172.47-4.69 171.62-4.69 170.92-4.88 170.37-5.28 169.82-5.67 169.43-6.21 169.22-6.89L173.72-6.92C174.25-6.92 174.75-6.97 175.22-7.06 175.68-7.16 176.09-7.3 176.43-7.48 176.77-7.66 177.07-7.86 177.34-8.08 177.6-8.31 177.82-8.55 177.98-8.82 178.13-9.08 178.25-9.35 178.33-9.63 178.4-9.91 178.44-10.19 178.44-10.49 178.44-12.02 177.86-13.23 176.7-14.11 175.54-14.99 173.72-15.43 171.23-15.43 168.6-15.43 166.44-14.71 164.77-13.25 163.11-11.79 162.27-9.81 162.27-7.3 162.27-4.98 163.12-3.16 164.81-1.82 166.5-0.48 168.64 0.19 171.23 0.19Z" transform="translate(-1.9500000476837158, 22.06999969482422)"></path></g> <!----> <!----> <!----> <!----> <!----> <!----> <!----></g></g> <!----></g></g><defs v-gra="od"></defs></svg>